<svg width="103.19036254882812px" height="58.862648010253906px" xmlns="http://www.w3.org/2000/svg" viewBox="198.40481872558593 45.56867599487305 103.19036254882812 58.862648010253906" style="background: rgba(34, 34, 34, 0);" preserveAspectRatio="xMidYMid"><defs><filter id="editing-hole" x="-100%" y="-100%" width="300%" height="300%"><feFlood flood-color="#222222" result="black"></feFlood><feMorphology operator="dilate" radius="2" in="SourceGraphic" result="erode"></feMorphology><feGaussianBlur in="erode" stdDeviation="4" result="blur"></feGaussianBlur><feOffset in="blur" dx="2" dy="2" result="offset"></feOffset><feComposite operator="atop" in="offset" in2="black" result="merge"></feComposite><feComposite operator="in" in="merge" in2="SourceGraphic" result="inner-shadow"></feComposite></filter></defs><g filter="url(#editing-hole)"><g transform="translate(220.10980996489525, 84.25000095367432)"><path d="M-0.33-1.48L-0.33-1.48L-0.33-1.48Q-0.33-2.43 0.41-2.95L0.41-2.95L0.41-2.95Q1.15-3.48 2.20-3.48L2.20-3.48L2.20-3.48Q3.25-3.48 3.89-2.95L3.89-2.95L3.89-2.95Q4.53-2.43 4.53-1.48L4.53-1.48L4.53-1.48Q4.53-0.53 3.81-0.01L3.81-0.01L3.81-0.01Q3.10 0.50 2.05 0.50L2.05 0.50L2.05 0.50Q1 0.50 0.34-0.01L0.34-0.01L0.34-0.01Q-0.33-0.53-0.33-1.48ZM24.85 0.50L24.85 0.50L24.85 0.50Q21.83 0.50 21.83-1.85L21.83-1.85L21.83-1.85Q21.83-2.88 22.26-4.86L22.26-4.86L22.26-4.86Q22.70-6.85 22.85-7.65L22.85-7.65L22.85-7.65Q23.20-9.47 23.20-10.05L23.20-10.05L23.20-10.05Q23.20-11.33 22.25-11.33L22.25-11.33L22.25-11.33Q21.63-11.33 21.03-10.46L21.03-10.46L21.03-10.46Q20.43-9.60 20.15-7.88L20.15-7.88L18.60 0L13.73 0.50L15.08-6.30L15.08-6.30Q15.30-7.43 15.50-8.70L15.50-8.70L15.50-8.70Q15.70-9.98 15.70-10.18L15.70-10.18L15.70-10.18Q15.70-11.33 14.85-11.33L14.85-11.33L14.85-11.33Q14.28-11.33 13.65-10.48L13.65-10.48L13.65-10.48Q13.03-9.63 12.68-7.88L12.68-7.88L11.15 0L6.23 0.50L8.85-12.75L12.93-13.25L12.50-10.73L12.50-10.73Q13.15-12.08 14.35-12.66L14.35-12.66L14.35-12.66Q15.55-13.25 17.43-13.25L17.43-13.25L17.43-13.25Q18.50-13.25 19.20-12.73L19.20-12.73L19.20-12.73Q19.90-12.20 20.13-11.35L20.13-11.35L20.13-11.35Q20.55-12.23 21.64-12.74L21.64-12.74L21.64-12.74Q22.73-13.25 24.06-13.25L24.06-13.25L24.06-13.25Q25.40-13.25 26.06-12.96L26.06-12.96L26.06-12.96Q26.73-12.68 27.13-12.20L27.13-12.20L27.13-12.20Q27.80-11.33 27.80-9.73L27.80-9.73L27.80-9.73Q27.80-8.15 27.13-4.88L27.13-4.88L27.13-4.88Q26.78-3.28 26.78-2.69L26.78-2.69L26.78-2.69Q26.78-2.10 27.11-1.75L27.11-1.75L27.11-1.75Q27.45-1.40 27.95-1.35L27.95-1.35L27.95-1.35Q27.70-0.50 26.84 0L26.84 0L26.84 0Q25.98 0.50 24.85 0.50ZM30.96-0.75L30.96-0.75L30.96-0.75Q30.38-1.40 30.11-2.43L30.11-2.43L30.11-2.43Q29.85-3.45 29.85-5.13L29.85-5.13L29.85-5.13Q29.85-6.80 30.43-8.33L30.43-8.33L30.43-8.33Q31.00-9.85 32.05-10.95L32.05-10.95L32.05-10.95Q34.20-13.25 37.75-13.25L37.75-13.25L37.75-13.25Q39.03-13.25 39.95-12.83L39.95-12.83L44.23-13.25L42.38-3.50L42.38-3.50Q42.30-3.20 42.30-2.65L42.30-2.65L42.30-2.65Q42.30-2.10 42.64-1.75L42.64-1.75L42.64-1.75Q42.98-1.40 43.48-1.35L43.48-1.35L43.48-1.35Q43.23-0.50 42.31 0L42.31 0L42.31 0Q41.40 0.50 40.38 0.50L40.38 0.50L40.38 0.50Q39.35 0.50 38.66 0.11L38.66 0.11L38.66 0.11Q37.98-0.28 37.78-0.93L37.78-0.93L37.78-0.93Q37.38-0.30 36.53 0.10L36.53 0.10L36.53 0.10Q35.68 0.50 34.54 0.50L34.54 0.50L34.54 0.50Q33.40 0.50 32.48 0.20L32.48 0.20L32.48 0.20Q31.55-0.10 30.96-0.75ZM36.24-10.90L36.24-10.90L36.24-10.90Q35.95-10.45 35.70-9.69L35.70-9.69L35.70-9.69Q35.45-8.93 35.04-6.89L35.04-6.89L35.04-6.89Q34.63-4.85 34.63-3.40L34.63-3.40L34.63-3.40Q34.63-1.95 34.85-1.53L34.85-1.53L34.85-1.53Q35.08-1.10 35.48-1.10L35.48-1.10L35.48-1.10Q36.28-1.10 36.86-1.86L36.86-1.86L36.86-1.86Q37.45-2.63 37.68-3.98L37.68-3.98L39-11.30L39-11.30Q38.48-11.75 37.86-11.75L37.86-11.75L37.86-11.75Q37.25-11.75 36.89-11.55L36.89-11.55L36.89-11.55Q36.53-11.35 36.24-10.90ZM45.25-1.20L45.25-1.20L48.35-17.50L53.43-18L52.65-14.18L52.65-14.18Q52.38-13 52.03-12.18L52.03-12.18L52.03-12.18Q52.58-12.88 53.78-13.15L53.78-13.15L53.78-13.15Q54.13-13.25 54.55-13.25L54.55-13.25L54.55-13.25Q56.88-13.25 58.15-11.84L58.15-11.84L58.15-11.84Q59.43-10.43 59.43-7.70L59.43-7.70L59.43-7.70Q59.43-4.15 57.40-1.93L57.40-1.93L57.40-1.93Q55.23 0.50 51.28 0.50L51.28 0.50L51.28 0.50Q48.55 0.50 46.50-0.40L46.50-0.40L46.50-0.40Q45.78-0.73 45.25-1.20ZM51.60-8.75L50.28-1.43L50.28-1.43Q50.80-0.98 51.45-0.98L51.45-0.98L51.45-0.98Q52.10-0.98 52.48-1.23L52.48-1.23L52.48-1.23Q52.85-1.48 53.13-1.98L53.13-1.98L53.13-1.98Q53.88-3.33 54.48-7.45L54.48-7.45L54.48-7.45Q54.65-8.63 54.65-9.80L54.65-9.80L54.65-9.80Q54.65-10.98 54.39-11.35L54.39-11.35L54.39-11.35Q54.13-11.73 53.63-11.73L53.63-11.73L53.63-11.73Q52.10-11.73 51.60-8.75L51.60-8.75Z" fill="#00d8ff"></path></g></g><style>text {
  font-size: 64px;
  font-family: Arial Black;
  dominant-baseline: central;
  text-anchor: middle;
}</style></svg>